<?xml version="1.0" standalone="no"?>
<!DOCTYPE svg PUBLIC "-//W3C//DTD SVG 20010904//EN"
 "http://www.w3.org/TR/2001/REC-SVG-20010904/DTD/svg10.dtd">
<svg version="1.0" xmlns="http://www.w3.org/2000/svg"
 width="200.000000pt" height="200.000000pt" viewBox="0 0 200.000000 200.000000"
 preserveAspectRatio="xMidYMid meet">
<metadata>
Created by potrace 1.11, written by Peter Selinger 2001-2013
</metadata>
<g transform="translate(0.000000,200.000000) scale(0.100000,-0.100000)"
fill="#000000" stroke="none">
<path d="M927 1323 c-2 -5 -1 -34 1 -65 4 -56 5 -58 33 -58 l29 0 0 65 0 65
-29 0 c-17 0 -31 -3 -34 -7z"/>
<path d="M913 1148 c-6 -24 -18 -68 -27 -98 -11 -38 -16 -96 -16 -192 l0 -138
33 0 c54 0 77 10 77 34 0 12 -9 27 -20 34 -17 10 -20 21 -18 67 l3 55 49 0 49
0 -7 63 c-3 34 -16 91 -27 127 -12 36 -23 71 -25 78 -2 6 -16 12 -31 12 -25 0
-30 -5 -40 -42z"/>
<path d="M211 1157 c-36 -18 -40 -40 -4 -23 32 15 83 29 83 22 0 -3 -22 -51
-50 -107 -30 -61 -50 -116 -50 -136 l0 -33 81 0 c93 0 139 18 139 55 0 6 -3 5
-8 -1 -12 -19 -45 -31 -98 -39 -87 -11 -91 20 -21 160 16 33 38 72 49 88 l19
27 -58 0 c-32 0 -69 -6 -82 -13z"/>
<path d="M1416 1094 c-5 -12 -2 -15 10 -10 8 3 18 6 20 6 2 0 4 5 4 10 0 16
-27 11 -34 -6z"/>
<path d="M568 1033 c-9 -10 -25 -36 -36 -58 -25 -50 -57 -81 -67 -65 -7 12 19
94 38 118 7 9 4 12 -12 12 -46 0 -82 -150 -39 -158 10 -2 29 8 42 21 l24 25 6
-24 c4 -13 13 -24 22 -24 16 0 60 43 76 75 5 11 -2 5 -17 -12 -15 -18 -31 -33
-36 -33 -16 0 -9 41 16 91 17 34 20 49 11 49 -7 0 -20 -8 -28 -17z"/>
<path d="M650 1029 c-7 -13 -8 -24 -3 -28 27 -18 23 -45 -14 -83 -25 -26 -32
-38 -21 -38 9 0 23 11 32 25 9 14 20 25 25 25 4 0 13 -11 19 -25 6 -14 20 -25
30 -25 27 0 70 36 87 73 15 32 15 32 -2 7 -47 -65 -74 -71 -91 -22 -8 24 -5
32 32 71 25 27 33 39 19 32 -11 -6 -30 -23 -41 -38 l-20 -28 -9 34 c-11 42
-28 50 -43 20z"/>
<path d="M1762 1034 c-27 -19 -28 -34 -1 -68 11 -14 19 -34 17 -44 -4 -23 -43
-23 -42 1 2 21 -15 22 -23 1 -15 -41 65 -46 105 -6 15 15 20 21 10 13 -17 -13
-18 -13 -13 1 4 9 -5 28 -19 46 -28 32 -32 47 -16 57 17 11 32 -5 19 -21 -9
-11 -8 -14 5 -14 22 0 33 30 15 41 -20 12 -32 11 -57 -7z"/>
<path d="M1121 1014 c-33 -42 -41 -124 -12 -124 5 0 23 11 40 25 l30 26 3 -23
c5 -36 35 -34 73 6 21 22 36 32 41 25 3 -6 15 -9 25 -6 15 4 19 0 19 -18 0
-34 14 -38 46 -13 23 18 27 19 21 5 -5 -12 -1 -17 12 -17 12 0 20 9 24 28 3
15 17 44 31 65 15 21 22 36 17 33 -5 -4 -11 -1 -13 6 -6 18 -38 1 -38 -19 0
-22 -46 -93 -60 -93 -15 0 -11 31 10 78 15 33 16 42 5 42 -7 0 -24 -19 -37
-42 -13 -24 -30 -43 -38 -43 -11 0 -14 10 -12 43 2 23 -1 42 -6 42 -12 0 -22
-24 -22 -54 0 -30 -48 -82 -62 -68 -11 11 5 75 25 100 7 9 4 12 -10 12 -12 0
-29 -18 -49 -52 -34 -60 -69 -79 -58 -31 3 15 15 43 25 61 23 41 1 45 -30 6z"/>
<path d="M1517 1029 c8 -8 7 -20 -3 -45 -16 -38 -18 -80 -5 -88 5 -4 23 6 40
20 17 14 31 21 31 16 0 -17 30 -42 50 -42 22 0 76 44 91 74 6 11 -3 4 -21 -17
-25 -29 -39 -37 -59 -35 -30 3 -43 44 -17 54 9 3 13 10 10 16 -7 12 25 48 43
48 21 0 15 -27 -9 -44 -16 -12 -18 -16 -7 -16 9 0 24 9 34 20 15 16 15 22 5
35 -28 33 -67 10 -137 -82 -30 -39 -40 -21 -20 33 19 51 16 64 -16 64 -15 0
-18 -3 -10 -11z"/>
<path d="M1032 880 c0 -14 2 -19 5 -12 2 6 2 18 0 25 -3 6 -5 1 -5 -13z"/>
<path d="M1018 786 c-25 -19 -24 -56 2 -56 16 0 20 7 20 35 0 40 1 39 -22 21z"/>
</g>
</svg>
