<?xml version="1.0" standalone="no"?>
<!DOCTYPE svg PUBLIC "-//W3C//DTD SVG 20010904//EN"
 "http://www.w3.org/TR/2001/REC-SVG-20010904/DTD/svg10.dtd">
<svg version="1.0" xmlns="http://www.w3.org/2000/svg"
 width="200.000000pt" height="200.000000pt" viewBox="0 0 200.000000 200.000000"
 preserveAspectRatio="xMidYMid meet">
<metadata>
Created by potrace 1.11, written by Peter Selinger 2001-2013
</metadata>
<g transform="translate(0.000000,200.000000) scale(0.100000,-0.100000)"
fill="#000000" stroke="none">
<path d="M1045 1491 c-3 -5 -14 -7 -26 -4 -23 6 -151 -25 -145 -36 2 -3 -8 -7
-22 -8 -15 0 -28 -6 -30 -12 -2 -6 -8 -11 -14 -11 -19 0 -68 -42 -62 -52 4 -7
2 -8 -4 -4 -6 3 -23 -6 -37 -21 -36 -38 -95 -129 -95 -147 0 -8 -5 -18 -11
-21 -6 -4 -8 -13 -5 -20 3 -8 1 -15 -4 -17 -5 -2 -12 -28 -16 -58 -4 -30 -7
-61 -8 -68 -1 -7 1 -36 4 -65 6 -46 4 -56 -18 -84 -29 -39 -37 -40 -53 -12 -9
18 -7 25 17 50 15 16 25 31 22 34 -3 4 -15 -6 -27 -21 l-21 -26 -10 27 c-9 23
-13 25 -25 15 -8 -7 -15 -18 -15 -24 0 -15 -47 -72 -54 -66 -2 3 4 24 14 48
10 23 15 44 11 47 -10 6 -30 -17 -61 -69 -19 -32 -21 -38 -7 -33 10 4 16 2 14
-5 -1 -7 6 -13 15 -16 11 -2 28 12 47 38 18 25 32 36 36 30 4 -7 -5 -25 -21
-41 -29 -30 -18 -42 12 -12 15 16 17 16 30 -1 19 -26 57 -14 82 26 19 29 22
31 27 13 21 -65 44 -111 79 -157 39 -54 120 -125 137 -121 5 2 9 -2 9 -8 0
-10 58 -35 73 -31 4 1 7 -2 7 -7 0 -16 95 -35 171 -35 43 1 98 9 130 19 58 19
132 55 137 68 2 4 9 7 15 7 20 0 119 108 111 121 -4 7 -3 9 4 6 6 -4 19 12 32
37 11 24 27 47 35 50 8 3 15 11 15 18 0 7 9 30 20 50 18 34 18 38 4 53 -10 10
-15 27 -12 46 3 16 1 32 -3 35 -5 2 -6 11 -2 19 3 9 -1 23 -8 32 -12 14 -12
16 0 8 11 -6 13 -4 6 11 -4 10 -10 31 -13 47 -2 15 -8 27 -13 27 -5 0 -8 3 -7
8 3 14 -14 62 -23 62 -5 0 -8 3 -7 8 11 34 -165 204 -193 186 -7 -4 -9 -3 -6
3 10 17 -81 50 -163 59 -25 3 -50 7 -57 9 -7 2 -15 0 -18 -4z m-391 -389 c3
-5 -1 -9 -9 -9 -8 0 -12 4 -9 9 3 4 7 8 9 8 2 0 6 -4 9 -8z"/>
<path d="M127 1015 c-11 -5 -22 -15 -24 -22 -3 -8 5 -7 26 3 17 9 35 14 40 12
5 -2 -6 -34 -24 -73 -19 -38 -34 -82 -34 -97 -1 -28 -1 -28 69 -28 59 0 72 3
82 20 16 25 26 26 24 3 0 -12 7 -19 22 -21 23 -4 29 7 12 24 -6 6 -2 25 10 52
18 40 18 43 2 40 -9 -2 -24 -18 -32 -35 -27 -60 -141 -95 -148 -46 -2 11 14
54 35 95 21 40 39 76 41 79 5 10 -79 5 -101 -6z"/>
<path d="M1813 940 c-28 -11 -29 -34 -3 -67 15 -20 17 -29 9 -39 -17 -20 -29
-17 -29 7 0 18 -3 19 -14 9 -22 -18 -8 -40 26 -40 41 0 65 15 83 53 16 32 16
32 -2 9 l-19 -23 -12 25 c-6 14 -16 26 -22 26 -5 0 -10 7 -10 15 0 8 7 15 15
15 9 0 12 -6 9 -15 -7 -17 11 -21 21 -5 7 11 -12 41 -24 39 -3 0 -16 -4 -28
-9z"/>
<path d="M1586 931 c-4 -5 -1 -11 6 -13 10 -4 10 -13 1 -42 -18 -60 0 -84 38
-50 17 15 19 15 34 0 9 -9 26 -16 37 -16 22 0 93 68 83 78 -3 4 -17 -8 -31
-26 -27 -34 -58 -42 -68 -17 -6 15 21 35 48 35 24 0 39 35 21 50 -24 20 -63 3
-90 -39 -33 -53 -50 -63 -42 -25 4 16 9 39 13 52 5 19 3 22 -19 22 -14 0 -28
-4 -31 -9z m146 -33 c-6 -6 -16 -8 -22 -6 -9 3 -7 9 6 22 13 13 19 15 22 6 2
-6 0 -16 -6 -22z"/>
</g>
</svg>
